<svg viewBox="0 0 200 200" xmlns="http://www.w3.org/2000/svg">
  <path fill="#42A5F5" d="M44.6,-73C57.7,-69.7,68.1,-57.5,68.2,-43.9C68.3,-30.2,58.2,-15.1,54.6,-2.1C51,11,54,21.9,51.7,31.7C49.3,41.5,41.5,50,32,58.8C22.5,67.6,11.3,76.7,-1.3,78.9C-13.8,81.1,-27.6,76.5,-41,69.9C-54.4,63.3,-67.3,54.8,-66.8,42.8C-66.2,30.9,-52.3,15.4,-48.5,2.2C-44.6,-11,-51,-22.1,-48.8,-29.3C-46.6,-36.5,-35.8,-40,-26.3,-45.3C-16.7,-50.5,-8.4,-57.7,3.7,-64.1C15.8,-70.5,31.5,-76.2,44.6,-73Z" transform="translate(100 100)" />
</svg>